<?xml version="1.0" encoding="UTF-8"?>
<!DOCTYPE svg PUBLIC "-//W3C//DTD SVG 1.1//EN" "http://www.w3.org/Graphics/SVG/1.1/DTD/svg11.dtd">
<svg xmlns="http://www.w3.org/2000/svg" version="1.1" width="1861px" height="581px" style="shape-rendering:geometricPrecision; text-rendering:geometricPrecision; image-rendering:optimizeQuality; fill-rule:evenodd; clip-rule:evenodd" xmlns:xlink="http://www.w3.org/1999/xlink">
<g><path style="opacity:0.973" fill="#fe8836" d="M 1347.5,-0.5 C 1348.83,-0.5 1350.17,-0.5 1351.5,-0.5C 1382.14,3.14736 1398.48,20.4807 1400.5,51.5C 1400.91,69.5937 1392.07,79.2604 1374,80.5C 1366.19,80.0102 1360.53,76.3435 1357,69.5C 1355.46,63.0143 1353.46,56.681 1351,50.5C 1349.28,48.5559 1347.11,47.5559 1344.5,47.5C 1330.45,51.7056 1318.62,59.3722 1309,70.5C 1294.17,89.1695 1283.83,110.169 1278,133.5C 1274.37,147.014 1271.54,160.681 1269.5,174.5C 1291.85,172.249 1314.18,169.749 1336.5,167C 1358.67,163.169 1368.5,172.336 1366,194.5C 1363.59,201.909 1358.76,207.076 1351.5,210C 1321.92,214.572 1292.26,218.406 1262.5,221.5C 1259.22,272.239 1260.06,322.905 1265,373.5C 1265.72,391.147 1270.05,407.814 1278,423.5C 1293.88,441.041 1291.38,455.208 1270.5,466C 1265.08,466.839 1259.75,466.506 1254.5,465C 1237.99,455.772 1228.49,441.605 1226,422.5C 1220.16,393.771 1216.33,364.771 1214.5,335.5C 1191.96,346.219 1168.29,353.052 1143.5,356C 1117.16,358.935 1098.66,348.435 1088,324.5C 1086.2,318.466 1084.53,312.466 1083,306.5C 1062.21,322.955 1041.71,339.789 1021.5,357C 1007.35,368.205 991.345,372.538 973.5,370C 960.602,366.77 951.769,358.936 947,346.5C 945.791,341.452 944.458,336.452 943,331.5C 921.787,338.682 900.12,344.016 878,347.5C 855.029,347.022 837.696,337.022 826,317.5C 817.488,298.634 810.155,279.301 804,259.5C 803.22,255.883 801.053,253.883 797.5,253.5C 785.246,258.295 774.246,265.128 764.5,274C 747.574,290.236 731.574,307.236 716.5,325C 701.806,333.52 688.64,331.686 677,319.5C 669.754,302.1 663.087,284.433 657,266.5C 654.609,259.712 650.443,258.212 644.5,262C 622.919,285.577 602.086,309.743 582,334.5C 576.81,344.067 570.31,352.567 562.5,360C 545.65,367.164 533.15,362.664 525,346.5C 523.855,340.871 522.855,335.205 522,329.5C 494.705,345.154 465.371,354.154 434,356.5C 410.51,357.265 394.176,346.932 385,325.5C 383.08,319.234 381.413,312.9 380,306.5C 356.833,325 333.667,343.5 310.5,362C 294.071,372.184 277.071,373.517 259.5,366C 248.044,358.263 241.878,347.43 241,333.5C 239.862,313.721 244.528,295.388 255,278.5C 283.872,231.629 323.372,196.796 373.5,174C 399.577,165.062 422.41,170.229 442,189.5C 449.541,202.328 447.374,213.162 435.5,222C 428.428,225.673 421.095,226.34 413.5,224C 407.051,219.359 399.885,216.526 392,215.5C 378.397,217.886 366.23,223.386 355.5,232C 329.306,251.518 308.14,275.351 292,303.5C 290.243,308.963 288.743,314.463 287.5,320C 288.108,320.87 288.941,321.37 290,321.5C 315.062,303.111 339.562,283.944 363.5,264C 370.332,259.416 377.332,255.083 384.5,251C 393.189,246.859 402.189,245.859 411.5,248C 419.381,251.567 423.881,257.734 425,266.5C 425.19,277.249 426.19,287.916 428,298.5C 430.476,308.325 436.642,311.825 446.5,309C 466.918,302.527 487.251,295.861 507.5,289C 512.305,288.219 516.972,288.719 521.5,290.5C 522.072,263.146 522.905,235.812 524,208.5C 531.577,190.803 544.077,186.303 561.5,195C 567.772,200.133 570.772,206.8 570.5,215C 568.912,236.142 568.412,257.309 569,278.5C 580.04,266.462 590.707,254.129 601,241.5C 612.747,227.07 627.247,216.57 644.5,210C 664.709,204.62 680.209,210.787 691,228.5C 696.242,241.978 701.742,255.311 707.5,268.5C 729.265,246.221 752.932,226.388 778.5,209C 790.808,201.472 804.141,198.805 818.5,201C 827.661,203.156 834.494,208.323 839,216.5C 846.793,236.545 853.793,256.879 860,277.5C 862.235,284.211 865.235,290.544 869,296.5C 874.669,302.212 881.503,304.045 889.5,302C 911.325,296.128 932.992,289.795 954.5,283C 978.882,242.285 1011.55,209.951 1052.5,186C 1062.26,180.787 1072.26,176.12 1082.5,172C 1106.67,166.082 1127.5,171.916 1145,189.5C 1153.41,204.618 1149.91,216.118 1134.5,224C 1128.49,225.942 1122.49,225.942 1116.5,224C 1105.67,215.693 1094.01,214.027 1081.5,219C 1066.46,226.379 1052.8,235.713 1040.5,247C 1029.6,257.23 1019.43,268.063 1010,279.5C 1004.25,287.336 999.245,295.669 995,304.5C 992.872,309.975 991.705,315.642 991.5,321.5C 995.882,320.141 999.882,317.974 1003.5,315C 1025.21,296.954 1047.21,279.287 1069.5,262C 1078.47,255.185 1088.47,250.518 1099.5,248C 1114.67,244.157 1124.17,249.657 1128,264.5C 1128.11,276.257 1129.11,287.924 1131,299.5C 1134.29,308.062 1140.46,311.229 1149.5,309C 1171.13,302.685 1192.46,295.518 1213.5,287.5C 1214.58,267.61 1215.58,247.776 1216.5,228C 1208.17,227.667 1199.83,227.333 1191.5,227C 1179.97,224.628 1173.97,217.462 1173.5,205.5C 1174.43,195.416 1179.43,188.249 1188.5,184C 1198.75,182.075 1209.08,180.742 1219.5,180C 1223.7,163.364 1227.53,146.53 1231,129.5C 1239.27,94.2921 1254.94,62.9587 1278,35.5C 1297.03,15.4015 1320.2,3.40151 1347.5,-0.5 Z"/></g>
<g><path style="opacity:0.973" fill="#fe8836" d="M 1609.5,34.5 C 1630.25,34.1352 1644.08,43.8018 1651,63.5C 1664.78,119.378 1660.11,173.711 1637,226.5C 1630.13,240.021 1622.46,253.021 1614,265.5C 1604.31,277.691 1594.81,290.024 1585.5,302.5C 1588.85,305.57 1592.85,307.404 1597.5,308C 1617.57,309.2 1637.24,306.866 1656.5,301C 1676.09,295.024 1695.59,288.857 1715,282.5C 1726.93,283.471 1734.27,289.805 1737,301.5C 1738.59,309.815 1736.09,316.648 1729.5,322C 1725.16,325.172 1720.49,327.839 1715.5,330C 1687.23,340.651 1658.23,348.651 1628.5,354C 1608.95,356.757 1589.62,355.757 1570.5,351C 1556.38,345.934 1544.72,337.434 1535.5,325.5C 1495.54,338.987 1455.21,351.154 1414.5,362C 1387.81,365.624 1369.97,354.79 1361,329.5C 1355.84,314.233 1354.17,298.566 1356,282.5C 1357.9,268.428 1360.23,254.428 1363,240.5C 1361.1,228.672 1363.76,218.006 1371,208.5C 1374.17,204.667 1377.33,200.833 1380.5,197C 1391.67,192.097 1402.34,193.097 1412.5,200C 1418.17,205.319 1420,211.819 1418,219.5C 1405.05,244.65 1399.71,271.316 1402,299.5C 1402.43,305.145 1404.6,309.979 1408.5,314C 1415.24,315.957 1421.91,315.624 1428.5,313C 1451.91,304.864 1475.24,296.53 1498.5,288C 1504.76,286.381 1511.09,285.214 1517.5,284.5C 1506.83,216.2 1517.66,151.533 1550,90.5C 1560.12,73.1196 1572.96,57.953 1588.5,45C 1595.04,40.3941 1602.04,36.8941 1609.5,34.5 Z M 1607.5,91.5 C 1608.5,91.4701 1609.16,91.9701 1609.5,93C 1618.25,147.833 1606.75,198 1575,243.5C 1570.99,248.341 1566.82,253.008 1562.5,257.5C 1559.89,248.889 1558.56,240.055 1558.5,231C 1560.35,185.774 1572.51,143.608 1595,104.5C 1598.7,99.6377 1602.86,95.3043 1607.5,91.5 Z"/></g>
<g><path style="opacity:0.972" fill="#fe8836" d="M -0.5,233.5 C -0.5,229.167 -0.5,224.833 -0.5,220.5C 0.838233,213.005 3.67157,206.005 8,199.5C 10.5136,159.869 12.5136,120.202 14,80.5C 17.235,64.4481 27.0683,57.6148 43.5,60C 55.5338,63.379 61.5338,71.379 61.5,84C 58.0236,113.211 55.6903,142.378 54.5,171.5C 88.8333,156.667 123.167,141.833 157.5,127C 164.26,121.819 170.593,116.153 176.5,110C 202.368,102.54 213.202,112.04 209,138.5C 206.694,143.613 203.528,148.113 199.5,152C 192.298,158.187 184.298,163.187 175.5,167C 135.666,183.251 96.3331,200.585 57.5,219C 52.7981,223.922 51.2981,229.755 53,236.5C 53.7845,238.286 54.9512,239.786 56.5,241C 71.5666,251.062 86.8999,260.729 102.5,270C 139.657,288.745 176.657,307.745 213.5,327C 220.649,331.669 227.149,337.169 233,343.5C 239.992,360.351 235.159,372.517 218.5,380C 212.732,381.225 207.399,380.225 202.5,377C 193.623,368.122 183.623,360.788 172.5,355C 131.855,335.011 91.5215,314.511 51.5,293.5C 50.3343,304.151 50.1676,314.818 51,325.5C 62.1099,340.618 59.6099,353.118 43.5,363C 36.0293,365.502 29.0293,364.502 22.5,360C 14.2,355.042 9.03337,347.875 7,338.5C 6.66667,311.167 6.33333,283.833 6,256.5C 3.48124,248.796 1.31457,241.13 -0.5,233.5 Z"/></g>
<g><path style="opacity:0.961" fill="#fe8836" d="M 1425.5,89.5 C 1448.85,87.2003 1462.18,97.5336 1465.5,120.5C 1462.64,145.875 1448.64,156.708 1423.5,153C 1404.43,146.039 1396.93,132.539 1401,112.5C 1404.89,100.108 1413.05,92.4417 1425.5,89.5 Z"/></g>
<g><path style="opacity:0.182" fill="#00a836" d="M 1641.5,383.5 C 1645.61,383.953 1649.28,385.453 1652.5,388C 1648.54,387.245 1644.54,386.245 1640.5,385C 1641.06,384.617 1641.39,384.117 1641.5,383.5 Z"/></g>
<g><path style="opacity:0.937" fill="#937154" d="M 1860.5,513.5 C 1860.5,514.5 1860.5,515.5 1860.5,516.5C 1818.42,533.437 1774.75,544.27 1729.5,549C 1664,556.302 1598.33,558.302 1532.5,555C 1418.34,548.73 1305.01,535.397 1192.5,515C 1093.99,496.137 995.324,478.137 896.5,461C 740.892,434.846 584.225,424.513 426.5,430C 293.787,432.737 161.121,436.903 28.5,442.5C 24.7444,442.537 21.0778,442.037 17.5,441C 200.306,420.05 383.806,408.55 568,406.5C 672.391,407.037 776.225,414.87 879.5,430C 923.295,436.577 966.962,443.91 1010.5,452C 1111.43,471.719 1212.43,491.052 1313.5,510C 1420.67,529.15 1528.67,539.65 1637.5,541.5C 1688.81,541.668 1739.81,537.835 1790.5,530C 1813.66,526.043 1836.33,520.21 1858.5,512.5C 1859.18,512.863 1859.85,513.196 1860.5,513.5 Z"/></g>
<g><path style="opacity:0.936" fill="#fe8836" d="M 1419.5,580.5 C 1414.5,580.5 1409.5,580.5 1404.5,580.5C 1335.86,573.004 1267.2,564.504 1198.5,555C 1073.25,535.108 947.92,515.774 822.5,497C 655.346,472.069 487.346,463.402 318.5,471C 261.501,473.026 204.501,475.026 147.5,477C 130.167,477.667 112.833,477.667 95.5,477C 200.736,462.71 306.402,453.376 412.5,449C 558.304,441.509 703.304,449.175 847.5,472C 891.614,479.019 935.614,486.686 979.5,495C 1126.41,523.884 1273.08,552.384 1419.5,580.5 Z"/></g>
</svg>
